<svg width="318" height="57" viewBox="0 0 318 57" fill="none" xmlns="http://www.w3.org/2000/svg">
<path d="M271.437 44.0216C270.343 45.2102 270.245 45.4372 269.72 47.9614C268.966 51.5909 269.035 53.0311 270.863 57H296.588C296.208 55.353 296.137 54.6755 296.29 54.3465C296.47 53.9583 296.219 52.8288 295.09 48.9627C293.559 43.7143 293.315 43.106 292.412 42.2776C292.05 41.9455 291.826 41.5031 291.826 41.1171C291.826 40.7743 292.448 38.9474 293.208 37.0581L294.591 33.6223L296.116 32.6274C297.676 31.6105 298.306 31.4194 298.487 31.9096C298.543 32.062 298.949 34.0674 299.39 36.3667C300.364 41.4536 300.619 42.2152 302.767 46.4739C303.7 48.3225 304.416 49.9085 304.359 49.9989C304.302 50.0895 303.606 50.477 302.813 50.8601C301.069 51.7028 299.473 53.3056 298.637 55.0553C298.287 55.7895 298.134 56.2365 298.072 57H314H315.5C315.5 55.0553 315 54.0324 313.492 52.8451C313.492 52.5 311.181 50.9732 310.289 50.6072C309.355 50.2246 309.341 50.192 308.876 47.3109C308.514 45.0688 308.096 43.8302 306.94 41.5836C306.096 39.9432 304.918 34.3887 304.912 32.0189C304.897 26.6709 303.463 23.1283 300.476 21.0564C299.645 20.48 298.501 19.596 297.935 19.0919C297.368 18.5879 296.346 17.8806 295.663 17.5202C294.98 17.1597 294.388 16.6955 294.347 16.4883C294.305 16.2814 294.679 15.6784 295.177 15.1484C295.674 14.6184 296.283 13.8009 296.528 13.3323C296.773 12.8634 297.247 12.2309 297.581 11.9266C298.51 11.0821 299.293 9.42193 299.134 8.6388C299.049 8.22448 299.175 7.52118 299.475 6.7352C299.997 5.36599 300.08 4.09794 299.711 3.14328C299.465 2.50926 297.926 0.937948 296.911 0.285673C296.769 0.194847 296.653 0.0939048 296.573 0H291.322C291.056 0.284316 290.782 0.560802 290.5 0.829089C289.316 1.95815 288.891 3.10985 288.891 5.1784C288.891 6.04312 288.812 6.1986 288.214 6.50164C287.596 6.81525 287.537 6.94346 287.537 7.97575C287.537 8.70984 287.691 9.35111 287.977 9.80414C288.372 10.4331 288.393 10.6656 288.184 12.1487C287.823 14.6989 287.647 14.8776 285.139 15.2306C280.634 15.8646 279.12 16.1578 278.341 16.5477C276.393 17.523 273.98 20.9885 272.231 25.3226C271.739 26.5405 270.628 29.0315 269.761 30.8582C268.162 34.224 267 37.4025 267 38.4068C267 38.7099 267.212 39.6019 267.471 40.389C267.998 41.9893 267.972 41.9737 270.514 42.2207C272.417 42.4052 272.599 42.7603 271.437 44.0216Z" fill="white"/>
<path d="M117.321 40.973H114.034V13H119.134L122.534 36.07C122.024 30.57 121.372 21.729 121.372 17.081V13H124.66V40.973H120.011L116.868 18.555C117.151 23.571 117.35 29.555 117.35 32.924V40.973H117.321Z" fill="white"/>
<path d="M126.533 40.973V13H131.181C134.27 13 136.197 14.672 136.197 18.612V22.718C136.197 25.269 135.403 26.544 134.326 27.224C135.431 27.933 136.197 29.18 136.197 31.334V35.418C136.197 39.244 134.156 40.973 131.181 40.973H126.533ZM130.302 16.518V25.757H130.784C132.116 25.757 132.456 25.247 132.456 23.716V18.418C132.456 17.118 132.056 16.547 130.926 16.547H130.302V16.518ZM130.302 28.847V37.463H130.926C132.088 37.463 132.456 36.811 132.456 35.451V30.718C132.456 29.358 132.031 28.847 130.784 28.847H130.302Z" fill="white"/>
<path d="M143.254 35.73H140.902L140.59 40.973H136.79L139.542 13H144.87L147.534 40.973H143.566L143.254 35.73ZM141.072 32.556H143.084L142.772 27.426C142.659 25.385 142.347 18.926 142.12 15.437H141.95L141.412 27.426L141.072 32.556Z" fill="white"/>
<path d="M257.161 36.382C257.161 37.487 256.961 38.026 256.226 38.026C255.404 38.026 255.291 37.402 255.291 36.382V33.831H251.519V36.098C251.519 39.898 252.879 41.228 256.139 41.228C259.399 41.228 260.929 39.357 260.929 35.815C260.929 33.859 260.107 31.564 257.953 29.015C256.026 26.748 255.289 25.444 255.289 23.715C255.289 22.525 255.572 21.986 256.281 21.986C256.99 21.986 257.188 22.468 257.188 24.027V26.379H260.929V23.912C260.929 20.029 259.512 18.782 256.229 18.782C252.856 18.782 251.553 20.993 251.553 24.11C251.553 26.944 252.853 29.183 254.699 31.337C256.509 33.491 257.161 34.965 257.161 36.382ZM246.334 36.382C246.334 37.487 246.134 38.026 245.399 38.026C244.577 38.026 244.464 37.402 244.464 36.382V33.831H240.695V36.098C240.695 39.898 242.055 41.228 245.315 41.228C248.575 41.228 250.105 39.357 250.105 35.815C250.105 33.859 249.283 31.564 247.129 29.015C245.202 26.748 244.465 25.444 244.465 23.715C244.465 22.525 244.748 21.986 245.457 21.986C246.166 21.986 246.364 22.468 246.364 24.027V26.379H250.105V23.912C250.105 20.029 248.688 18.782 245.405 18.782C242.032 18.782 240.729 20.993 240.729 24.11C240.729 26.944 242.029 29.183 243.875 31.337C245.682 33.491 246.334 34.965 246.334 36.382ZM233.524 36.24V32.84C233.524 31.423 234.006 30.913 235.395 30.884V37.684C235.106 37.8014 234.8 37.8691 234.488 37.884C233.665 37.884 233.519 37.261 233.519 36.24H233.524ZM235.99 41.001H239.164V24.365C239.164 20.312 237.864 18.782 234.488 18.782C231.257 18.782 229.812 20.114 229.812 24.11V26.859H233.496V24.11C233.496 22.551 233.723 22.154 234.431 22.154C235.139 22.154 235.366 22.494 235.366 24.11V28.503C231.823 28.021 229.726 29.552 229.726 33.009V37.374C229.726 40.038 230.775 41.228 232.759 41.228C233.328 41.227 233.888 41.0839 234.388 40.8117C234.888 40.5394 235.312 40.1467 235.622 39.669C235.763 40.18 235.876 40.69 235.989 41.002L235.99 41.001ZM223.065 16.543C224.255 16.543 224.595 17.223 224.595 18.555V27.398C224.595 28.698 224.255 29.354 223.065 29.354H222.441V16.543H223.065ZM223.348 32.698C226.522 32.698 228.365 30.827 228.365 26.973V18.64C228.365 14.786 226.523 13 223.348 13H218.672V41.03H222.441V32.698H223.348ZM208.073 23.827C208.073 22.58 208.356 22.183 209.008 22.183C209.688 22.183 209.943 22.583 209.943 23.827V28.588H208.073V23.827ZM213.713 35.787V32.471H209.943V36.24C209.943 37.487 209.716 37.884 209.008 37.884C208.3 37.884 208.073 37.484 208.073 36.24V31.054H213.713V24.254C213.713 19.833 211.956 18.812 209.013 18.812C206.07 18.812 204.313 19.832 204.313 24.254V35.787C204.313 40.208 206.07 41.229 209.013 41.229C211.956 41.257 213.713 40.236 213.713 35.787ZM199.457 41.002H202.631V19.037H198.862V37.718C198.561 37.8205 198.245 37.8778 197.927 37.888C197.247 37.888 196.992 37.488 196.992 36.588V19.037H193.219V37.686C193.219 40.237 194.519 41.257 196.167 41.257C196.748 41.2525 197.319 41.1085 197.833 40.8372C198.347 40.5659 198.788 40.1752 199.119 39.698C199.204 40.1395 199.316 40.5751 199.457 41.002ZM184.266 42.818C184.255 42.4572 184.354 42.1016 184.549 41.798C185.2 42.0076 185.878 42.1221 186.561 42.138C188.12 42.251 188.602 42.421 188.602 43.073C188.602 43.895 187.893 44.178 186.731 44.178C185.428 44.204 184.266 43.836 184.266 42.818ZM187.384 23.829V32.218C187.384 33.518 187.184 33.862 186.449 33.862C185.769 33.862 185.514 33.522 185.514 32.218V23.827C185.514 22.58 185.826 22.183 186.449 22.183C187.157 22.183 187.383 22.58 187.383 23.827L187.384 23.829ZM191.777 42.591C191.777 40.04 190.53 38.907 188.093 38.591C185.429 38.279 184.635 38.109 184.635 37.401C184.635 37.2956 184.675 37.1941 184.748 37.118C185.307 37.2378 185.877 37.2948 186.448 37.288C189.424 37.288 191.148 36.268 191.148 31.846V24.246C191.17 23.5992 191.113 22.9521 190.978 22.319L191.828 22.092C191.959 21.0859 192.035 20.0734 192.055 19.059C192.055 18.859 191.942 18.776 191.743 18.776C191.363 18.7543 190.983 18.8349 190.644 19.0093C190.306 19.1837 190.02 19.4457 189.816 19.768C188.847 19.0259 187.635 18.6741 186.419 18.782C183.471 18.782 181.719 19.802 181.719 24.224V31.791C181.719 34.313 182.319 35.759 183.334 36.491C182.931 36.7405 182.596 37.0858 182.359 37.4961C182.121 37.9065 181.989 38.3692 181.974 38.843C181.962 39.3059 182.07 39.764 182.288 40.1723C182.507 40.5807 182.827 40.9252 183.219 41.172C182.727 41.4241 182.31 41.7996 182.006 42.2617C181.703 42.7237 181.525 43.2565 181.49 43.808C181.49 45.8487 183.247 46.869 186.762 46.869C190.302 46.897 191.776 44.969 191.776 42.589L191.777 42.591ZM174.459 36.24V32.84C174.459 31.423 174.941 30.913 176.33 30.884V37.684C176.041 37.8014 175.735 37.8691 175.423 37.884C174.629 37.884 174.459 37.261 174.459 36.24ZM176.925 41.001H180.099V24.365C180.099 20.312 178.799 18.782 175.423 18.782C172.192 18.782 170.747 20.114 170.747 24.11V26.859H174.431V24.11C174.431 22.551 174.658 22.154 175.366 22.154C176.074 22.154 176.301 22.494 176.301 24.11V28.503C172.815 28.078 170.689 29.608 170.689 33.038V37.403C170.689 40.067 171.738 41.257 173.722 41.257C174.291 41.256 174.851 41.1129 175.351 40.8407C175.851 40.5684 176.275 40.1757 176.585 39.698C176.698 40.18 176.812 40.689 176.925 41.001ZM163.378 23.827C163.378 22.58 163.661 22.183 164.313 22.183C164.965 22.183 165.248 22.583 165.248 23.827V28.588H163.378V23.827ZM169.018 35.787V32.471H165.248V36.24C165.248 37.487 165.021 37.884 164.313 37.884C163.605 37.884 163.378 37.484 163.378 36.24V31.054H169.019V24.254C169.019 19.833 167.262 18.812 164.319 18.812C161.376 18.812 159.619 19.832 159.619 24.254V35.787C159.619 40.208 161.376 41.229 164.319 41.229C167.261 41.257 169.018 40.236 169.018 35.787ZM158.532 37.487H155.442V13H151.673V41.03H158.532V37.487Z" fill="white"/>
<path d="M10.059 30.3749C10.298 28.1089 10.417 25.4449 10.496 23.0189C10.576 25.4439 10.696 28.1079 10.933 30.3749L11.967 41.0309H17.414L20.754 13.1989H16.738L15.427 25.2059C15.069 28.3869 14.791 31.3689 14.711 33.8339C14.631 31.3689 14.393 28.3869 14.075 25.2059L12.803 13.1979H8.429L7.157 25.2059C6.839 28.3869 6.6 31.3689 6.481 33.8339C6.401 31.3689 6.081 28.3869 5.765 25.2059L4.493 13.1979H0L3.34 41.0299H9.026L10.059 30.3749ZM29.18 41.0309H33.68L30.102 13.1989H23.939L20.317 41.0309H24.333L24.81 37.0949H28.667L29.18 41.0309ZM25.443 32.2839C26.043 26.0839 26.477 20.9919 26.755 16.6979C26.994 20.9919 27.471 26.0809 28.067 32.2839L28.147 33.1189H25.364L25.443 32.2839ZM40.393 41.0309V17.3739H43.38V13.1989H32.921V17.3739H35.903V41.0309H40.393ZM49.1 19.2419C49.1 17.6909 49.219 17.2139 50.531 17.2139H51.167C52.479 17.2139 52.598 17.6909 52.598 19.2419V23.6159H56.817V18.6499C56.817 14.2759 55.783 13.0039 51.767 13.0039H49.7C45.644 13.0039 44.611 14.2759 44.611 18.6499V35.5839C44.611 39.9579 45.645 41.2299 49.7 41.2299H51.768C55.784 41.2299 56.818 39.9579 56.818 35.5839V29.4209H52.603V34.9869C52.603 36.5379 52.484 37.0149 51.172 37.0149H50.536C49.224 37.0149 49.105 36.5379 49.105 34.9869L49.1 19.2419ZM63.696 41.0309V28.6259H67.196V41.0309H71.689V13.1989H67.195V24.4109H63.695V13.1989H59.203V41.0309H63.696Z" fill="white"/>
<path d="M90.0381 33.467L98.5071 27.115L90.0381 20.763V33.467ZM92.8611 13C90.0694 13 87.3404 13.8278 85.0192 15.3788C82.698 16.9298 80.8889 19.1342 79.8205 21.7134C78.7522 24.2926 78.4727 27.1307 79.0173 29.8687C79.5619 32.6067 80.9063 35.1218 82.8803 37.0958C84.8543 39.0698 87.3694 40.4142 90.1074 40.9588C92.8454 41.5034 95.6835 41.2239 98.2627 40.1556C100.842 39.0872 103.046 37.2781 104.597 34.9569C106.148 32.6357 106.976 29.9067 106.976 27.115C106.975 23.3719 105.487 19.7824 102.84 17.1357C100.194 14.4889 96.6042 13.0013 92.8611 13ZM92.8611 38.407C90.6278 38.407 88.4446 37.7447 86.5876 36.504C84.7306 35.2632 83.2833 33.4996 82.4287 31.4363C81.574 29.3729 81.3504 27.1025 81.7861 24.912C82.2218 22.7216 83.2972 20.7096 84.8765 19.1304C86.4557 17.5511 88.4677 16.4757 90.6581 16.04C92.8486 15.6043 95.119 15.8279 97.1824 16.6826C99.2457 17.5372 101.009 18.9845 102.25 20.8415C103.491 22.6985 104.153 24.8817 104.153 27.115C104.149 30.1086 102.958 32.9785 100.841 35.0953C98.7246 37.2121 95.8547 38.403 92.8611 38.407Z" fill="white"/>
</svg>
